<svg xmlns="http://www.w3.org/2000/svg" fill="none" viewBox="0 0 74 89" height="89" width="74">
<g clip-path="url(#clip0_4123_2721)">
<path fill="#143821" d="M7.31206 89.0017H5.75023C2.44794 88.0754 2.03273 85.0935 1.76237 82.1358C1.51132 79.3788 1.53546 76.4042 1.41235 73.623C0.572289 54.844 0.765406 35.9537 0.379172 17.1336C0.29227 12.8844 -0.876087 6.40308 1.38097 2.68356C5.33744 -3.84133 15.1381 3.29783 19.6257 5.67514C25.5544 8.81666 31.8572 11.4213 37.8462 14.5314C43.8353 17.6415 50.0826 21.4553 56.1754 25.0152C61.1796 27.9391 70.8958 32.0504 73.0128 37.6901C75.8613 45.2791 66.0075 50.3167 61.1796 54.0797C58.1476 56.4425 55.3161 59.1246 52.3203 61.5406C38.626 72.5927 23.8187 82.6364 7.30965 89.0041L7.31206 89.0017Z"></path>
</g>
<defs>
<clipPath id="clip0_4123_2721">
<rect fill="white" height="89.0002" width="73.522"></rect>
</clipPath>
</defs>
</svg>
