<svg xmlns="http://www.w3.org/2000/svg" xmlns:xlink="http://www.w3.org/1999/xlink" width="240" zoomAndPan="magnify" viewBox="0 0 180 119.999999" height="160" preserveAspectRatio="xMidYMid meet" version="1.0"><defs><clipPath id="7936dec1c8"><path d="M 8.566406 8.605469 L 172.816406 8.605469 L 172.816406 114.355469 L 8.566406 114.355469 Z M 8.566406 8.605469 " clip-rule="nonzero"/></clipPath></defs><g clip-path="url(#7936dec1c8)"><path fill="#000000" d="M 159.5625 75.765625 C 148.96875 86.097656 131.765625 90.128906 117.519531 92.40625 C 106.859375 94.105469 96.445312 94.566406 85.757812 95.375 C 84.609375 95.460938 83.433594 95.316406 82.285156 95.375 L 83.011719 96.101562 C 79.425781 96.230469 75.78125 95.773438 72.246094 96.488281 L 62.429688 96.171875 C 59.382812 99.796875 56.238281 103.074219 52.433594 105.921875 C 48.625 108.765625 45.195312 109.539062 41.738281 111.6875 C 40.289062 112.585938 39.042969 114.367188 36.832031 114.367188 C 35.757812 114.0625 35.613281 111.265625 36.042969 110.371094 C 36.390625 109.652344 38.058594 109.230469 38.765625 108.710938 C 41.59375 106.613281 43.542969 101.617188 43.179688 98.121094 C 43.050781 96.914062 42.335938 95.902344 42.445312 94.652344 C 39.769531 95.917969 36.496094 95.125 33.667969 94.476562 C 19.644531 91.257812 9.753906 83.707031 8.796875 68.515625 C 6.117188 25.992188 61.542969 11.871094 94.542969 9.054688 C 118.945312 6.96875 155.542969 11.550781 169.359375 34.777344 C 177.308594 48.144531 169.824219 65.78125 159.570312 75.777344 Z M 156.128906 26.601562 C 155.429688 25.9375 155.242188 25.515625 155.042969 25.332031 C 153.960938 24.339844 151.066406 22.703125 149.546875 22.941406 L 149.738281 22.3125 L 145.898438 21.105469 L 146.625 20.378906 L 144.621094 20.378906 C 144.621094 20.378906 144.621094 19.652344 144.621094 19.652344 L 143.695312 20.007812 L 143.679688 19.429688 L 142.964844 19.636719 L 143.335938 18.910156 C 141.640625 18.800781 140.613281 17.375 138.945312 18.171875 L 139.136719 17.453125 C 137.960938 18.515625 137.085938 17.109375 136.394531 16.9375 C 133.042969 16.109375 126.140625 14.078125 123.394531 13.785156 C 100.1875 11.265625 71.78125 14.371094 49.660156 22.289062 C 29.253906 29.597656 7.023438 45.417969 10.308594 69.898438 C 12.226562 84.171875 26.351562 91.585938 39.691406 91.742188 C 41.394531 91.761719 42.457031 91.476562 42.992188 89.886719 C 43.441406 89.800781 43.769531 89.9375 44.113281 90.222656 C 45.132812 91.085938 45.074219 96.945312 45.011719 98.5 C 44.898438 101.347656 44.15625 104.242188 44.082031 107.082031 C 48.339844 105.648438 52.40625 102.410156 55.667969 99.371094 C 56.910156 98.214844 59.136719 95.917969 60.132812 94.609375 C 61.246094 93.148438 61.539062 91.792969 62.398438 90.273438 C 66.113281 90.664062 69.984375 90.777344 73.75 90.851562 C 96.058594 91.257812 121.171875 90.449219 142.324219 82.480469 C 161.511719 75.25 179.871094 55.519531 165.125 35.148438 C 164.726562 34.601562 162.203125 31.347656 162.011719 31.152344 C 161.261719 30.402344 160.097656 30.746094 159.035156 29.347656 C 157.996094 27.976562 158.082031 28.214844 156.492188 26.964844 L 156.847656 26.777344 C 156.847656 26.550781 156.511719 26.613281 156.492188 26.59375 C 156.46875 26.570312 156.535156 26.230469 156.304688 26.238281 L 156.121094 26.59375 Z M 156.128906 26.601562 " fill-opacity="1" fill-rule="nonzero"/></g></svg>